<?xml version="1.0" encoding="UTF-8"?>
<svg width="15px" height="15px" viewBox="0 0 15 15" version="1.1" xmlns="http://www.w3.org/2000/svg" xmlns:xlink="http://www.w3.org/1999/xlink">
    <!-- Generator: Sketch 47.1 (45422) - http://www.bohemiancoding.com/sketch -->
    <title>android_help_iconSVG/</title>
    <desc>Created with Sketch.</desc>
    <defs></defs>
    <g id="Icons" stroke="none" stroke-width="1" fill="none" fill-rule="evenodd">
        <g id="android_help_icon" fill-rule="nonzero" fill="#FFFFFF">
            <g id="759AAC95-7221-4CCA-A581-F86BDEA5C487">
                <path d="M6.75,12 L8.25,12 L8.25,10.5 L6.75,10.5 L6.75,12 Z M7.5,0 C3.36,0 0,3.36 0,7.5 C0,11.64 3.36,15 7.5,15 C11.64,15 15,11.64 15,7.5 C15,3.36 11.64,0 7.5,0 Z M7.5,13.5 C4.1925,13.5 1.5,10.8075 1.5,7.5 C1.5,4.1925 4.1925,1.5 7.5,1.5 C10.8075,1.5 13.5,4.1925 13.5,7.5 C13.5,10.8075 10.8075,13.5 7.5,13.5 Z M7.5,3 C5.8425,3 4.5,4.3425 4.5,6 L6,6 C6,5.175 6.675,4.5 7.5,4.5 C8.325,4.5 9,5.175 9,6 C9,7.5 6.75,7.3125 6.75,9.75 L8.25,9.75 C8.25,8.0625 10.5,7.875 10.5,6 C10.5,4.3425 9.1575,3 7.5,3 Z"></path>
            </g>
        </g>
    </g>
</svg>