<?xml version="1.0" encoding="UTF-8"?>
<svg width="25px" height="30px" viewBox="0 0 25 30" version="1.1" xmlns="http://www.w3.org/2000/svg" xmlns:xlink="http://www.w3.org/1999/xlink">
    <!-- Generator: Sketch 50.2 (55047) - http://www.bohemiancoding.com/sketch -->
    <title>ic_delete</title>
    <desc>Created with Sketch.</desc>
    <defs>
        <path d="M10.0207,0 L15.0207,0 C15.6482,0 16.1757,0.22119 16.5932,0.6553 C17.25257,1.34301 17.44507,2.41589 17.49882,3.05148 L24.00125,3.05148 C24.27687,3.05148 24.49875,3.27712 24.49875,3.56059 C24.49875,3.84089 24.27687,4.06653 24.00125,4.06653 L22.98062,4.06653 L22.02125,27.479247 C22.00375,28.343654 21.46688,29.999375 19.5675,29.999375 L5.431875,29.999375 C3.5325,29.999375 2.9975,28.343654 2.978125,27.469713 L2.02125,4.06653 L1.000625,4.06653 C0.724375,4.06653 0.5,3.84089 0.5,3.56059 C0.5,3.27712 0.724375,3.05148 1.000625,3.05148 L7.543195,3.05148 C7.59882,2.41589 7.791945,1.34301 8.45132,0.6553 C8.86632,0.22119 9.395695,0 10.0207,0 Z M9.15,1.36335 C8.7475,1.78284 8.58625,2.51759 8.53,3.05148 L16.47687,3.05148 C16.42062,2.51759 16.25937,1.78284 15.85687,1.36335 C15.63187,1.12945 15.35375,1.01822 15.00187,1.01822 L10.00187,1.01822 C9.653125,1.01822 9.3725,1.12945 9.15,1.36335 Z M20.59145,27.000601 L21.5,4.57627 L3.5,4.57627 L4.406172,26.990848 C4.413293,27.148121 4.489846,28.474586 5.788276,28.474586 L19.20994,28.474586 C20.52202,28.474586 20.58908,27.15056 20.59145,27.000601 Z" id="path-1"></path>
        <path d="M1.5,18.000625 C1.08708,18.000625 0.75,17.775625 0.75,17.5 L0.75,1.00125 C0.75,0.7225 1.08708,0.50062 1.5,0.50062 C1.91386,0.50062 2.25,0.7225 2.25,1.00125 L2.25,17.5 C2.25,17.775625 1.91386,18.000625 1.5,18.000625 Z" id="path-3"></path>
        <path d="M1.25,18.000625 C0.83708,18.000625 0.5,17.775625 0.5,17.5 L0.5,1.00125 C0.5,0.7225 0.83708,0.50062 1.25,0.50062 C1.66386,0.50062 2,0.7225 2,1.00125 L2,17.5 C2,17.775625 1.66386,18.000625 1.25,18.000625 Z" id="path-5"></path>
        <path d="M0.75,18.000625 C0.337079,18.000625 0,17.775625 0,17.5 L0,1.00125 C0,0.7225 0.337079,0.50062 0.75,0.50062 C1.163858,0.50062 1.5,0.7225 1.5,1.00125 L1.5,17.5 C1.5,17.775625 1.163858,18.000625 0.75,18.000625 Z" id="path-7"></path>
    </defs>
    <g id="ic_delete" stroke="none" stroke-width="1" fill="none" fill-rule="evenodd">
        <g id="Group-3">
            <mask id="mask-2" fill="white">
                <use xlink:href="#path-1"></use>
            </mask>
            <g id="Clip-2"></g>
            <polygon id="Fill-1" fill="#009EDC" mask="url(#mask-2)" points="-4.5 34.999375 29.49875 34.999375 29.49875 -5.000005 -4.5 -5.000005"></polygon>
        </g>
        <g id="Group-6" transform="translate(11.000000, 8.000000)">
            <mask id="mask-4" fill="white">
                <use xlink:href="#path-3"></use>
            </mask>
            <g id="Clip-5"></g>
            <polygon id="Fill-4" fill="#009EDC" mask="url(#mask-4)" points="-4.25 23.000625 7.25 23.000625 7.25 -4.499375 -4.25 -4.499375"></polygon>
        </g>
        <g id="Group-9" transform="translate(16.000000, 8.000000)">
            <mask id="mask-6" fill="white">
                <use xlink:href="#path-5"></use>
            </mask>
            <g id="Clip-8"></g>
            <polygon id="Fill-7" fill="#009EDC" mask="url(#mask-6)" points="-4.5 23.000625 7 23.000625 7 -4.499375 -4.5 -4.499375"></polygon>
        </g>
        <g id="Group-12" transform="translate(7.000000, 8.000000)">
            <mask id="mask-8" fill="white">
                <use xlink:href="#path-7"></use>
            </mask>
            <g id="Clip-11"></g>
            <polygon id="Fill-10" fill="#009EDC" mask="url(#mask-8)" points="-5 23.000625 6.5 23.000625 6.5 -4.499375 -5 -4.499375"></polygon>
        </g>
    </g>
</svg>