<?xml version="1.0" encoding="UTF-8"?>
<svg width="23px" height="18px" viewBox="0 0 23 18" version="1.1" xmlns="http://www.w3.org/2000/svg" xmlns:xlink="http://www.w3.org/1999/xlink">
    <!-- Generator: Sketch 47.1 (45422) - http://www.bohemiancoding.com/sketch -->
    <title>ios_pagination_camera_iconSVG/</title>
    <desc>Created with Sketch.</desc>
    <defs></defs>
    <g id="Icons" stroke="none" stroke-width="1" fill="none" fill-rule="evenodd">
        <g id="ios_pagination_camera_icon" fill="#FFFFFF">
            <g id="Camera-Icon">
                <path d="M2.07657143,2.06204651 L4.54660714,2.06204651 L4.54660714,1.13525581 L2.07657143,1.13525581 L2.07657143,2.06204651 Z M20.5299643,2.82390697 L17.5128571,2.82390697 C17.2049508,2.82400094 16.917488,2.66681994 16.7472857,2.40530232 L15.4527143,0.418604649 C15.282512,0.157087033 14.9950492,-9.39765996e-05 14.6871429,-1.10078557e-09 L8.31285714,-1.10078557e-09 C8.00495081,-9.39765996e-05 7.71748795,0.157087033 7.54728571,0.418604649 L6.25271429,2.40446511 C6.08251205,2.66598273 5.79504919,2.82316374 5.48714286,2.82306976 L2.46921429,2.82306976 C1.8130304,2.82440068 1.18424098,3.09135359 0.721173198,3.56520161 C0.258105412,4.03904963 -0.00130844114,4.68097739 1.03872117e-13,5.34976743 L1.03872117e-13,15.4741395 C-0.00227049201,16.8664963 1.10310315,17.9972283 2.46921429,18 L20.5307857,18 C21.8968968,17.9972283 23.0022705,16.8664963 23,15.4741395 L23,5.34976743 C23.0013084,4.68097739 22.7418946,4.03904963 22.2788268,3.56520161 C21.815759,3.09135359 21.1869696,2.82440068 20.5307857,2.82306976 L20.5299643,2.82390697 Z M19.0160714,5.28697673 C19.0160837,5.70083891 18.6885846,6.03724617 18.2825357,6.0404651 L18.26775,6.0404651 C17.8617011,6.03724617 17.534202,5.70083891 17.5342143,5.28697673 L17.5342143,5.27441859 C17.534202,4.86055641 17.8617011,4.52414915 18.26775,4.52093022 L18.2825357,4.52093022 C18.6885846,4.52414915 19.0160837,4.86055641 19.0160714,5.27441859 L19.0160714,5.28697673 Z M11.5,16.1355348 C9.35105055,16.1433293 7.40944473,14.8299632 6.58177289,12.808684 C5.75410105,10.7874049 6.20363213,8.45693606 7.72046744,6.905439 C9.23730274,5.35394194 11.5222269,4.88746944 13.5083447,5.72383063 C15.4944624,6.56019182 16.7899864,8.53440365 16.79,10.7246511 C16.7918243,13.7062561 14.425392,16.1267646 11.5,16.1355348 L11.5,16.1355348 Z M11.5,6.49255812 C9.81821347,6.4864581 8.29869588,7.51430985 7.6509527,9.0961805 C7.00320952,10.6780512 7.35501645,12.5018963 8.54210495,13.7161114 C9.72919345,14.9303265 11.517395,15.2953919 13.071748,14.6408484 C14.626101,13.9863048 15.6399894,12.4412695 15.64,10.7271628 C15.6436328,8.39280573 13.7903547,6.49717768 11.5,6.49255812 Z"></path>
            </g>
        </g>
    </g>
</svg>