<?xml version="1.0" encoding="UTF-8"?>
<svg width="20px" height="20px" viewBox="0 0 20 20" version="1.1" xmlns="http://www.w3.org/2000/svg" xmlns:xlink="http://www.w3.org/1999/xlink">
    <!-- Generator: Sketch 47.1 (45422) - http://www.bohemiancoding.com/sketch -->
    <title>ios_loader_iconSVG/</title>
    <desc>Created with Sketch.</desc>
    <defs>
        <rect id="path-1" x="0" y="0" width="20" height="20"></rect>
    </defs>
    <g id="Icons" stroke="none" stroke-width="1" fill="none" fill-rule="evenodd">
        <g id="ios_loader_icon">
            <g>
                <mask id="mask-2" fill="white">
                    <use xlink:href="#path-1"></use>
                </mask>
                <g id="Rectangle-6"></g>
                <path d="M10,3.70967742 C9.4516129,3.70967742 9.03225806,3.29032258 9.03225806,2.74193548 L9.03225806,0.967741935 C9.03225806,0.419354839 9.4516129,0 10,0 C10.5483871,0 10.9677419,0.419354839 10.9677419,0.967741935 L10.9677419,2.74193548 C10.9677419,3.25806452 10.5483871,3.70967742 10,3.70967742 Z M10,20 C9.4516129,20 9.03225806,19.5806452 9.03225806,19.0322581 L9.03225806,17.2580645 C9.03225806,16.7096774 9.4516129,16.2903226 10,16.2903226 C10.5483871,16.2903226 10.9677419,16.7096774 10.9677419,17.2580645 L10.9677419,19.0322581 C10.9677419,19.5806452 10.5483871,20 10,20 Z M6.35483871,4.67741935 C6.03225806,4.67741935 5.70967742,4.51612903 5.51612903,4.19354839 L4.64516129,2.67741935 C4.38709677,2.22580645 4.5483871,1.61290323 5,1.35483871 C5.4516129,1.09677419 6.06451613,1.25806452 6.32258065,1.70967742 L7.19354839,3.22580645 C7.4516129,3.67741935 7.29032258,4.29032258 6.83870968,4.5483871 C6.70967742,4.61290323 6.51612903,4.67741935 6.35483871,4.67741935 Z M14.516129,18.7741935 C14.1935484,18.7741935 13.8709677,18.6129032 13.6774194,18.2903226 L12.8064516,16.7741935 C12.5483871,16.3225806 12.7096774,15.7096774 13.1612903,15.4516129 C13.6129032,15.1935484 14.2258065,15.3548387 14.483871,15.8064516 L15.3548387,17.3225806 C15.6129032,17.7741935 15.4516129,18.3870968 15,18.6451613 C14.8387097,18.7419355 14.6774194,18.7741935 14.516129,18.7741935 Z M3.70967742,7.32258065 C3.5483871,7.32258065 3.38709677,7.29032258 3.22580645,7.19354839 L1.70967742,6.32258065 C1.25806452,6.06451613 1.09677419,5.4516129 1.35483871,5 C1.61290323,4.5483871 2.22580645,4.38709677 2.67741935,4.64516129 L4.19354839,5.51612903 C4.64516129,5.77419355 4.80645161,6.38709677 4.5483871,6.83870968 C4.35483871,7.16129032 4.03225806,7.32258065 3.70967742,7.32258065 Z M17.8387097,15.483871 C17.6774194,15.483871 17.516129,15.4516129 17.3548387,15.3548387 L15.8064516,14.483871 C15.3548387,14.2258065 15.1935484,13.6129032 15.4516129,13.1612903 C15.7096774,12.7096774 16.3225806,12.5483871 16.7741935,12.8064516 L18.2903226,13.6774194 C18.7419355,13.9354839 18.9032258,14.5483871 18.6451613,15 C18.483871,15.3225806 18.1612903,15.483871 17.8387097,15.483871 Z M2.74193548,10.9677419 L0.967741935,10.9677419 C0.419354839,10.9677419 -3.55271368e-15,10.5483871 -3.55271368e-15,10 C-3.55271368e-15,9.4516129 0.419354839,9.03225806 0.967741935,9.03225806 L2.74193548,9.03225806 C3.29032258,9.03225806 3.70967742,9.4516129 3.70967742,10 C3.70967742,10.5483871 3.25806452,10.9677419 2.74193548,10.9677419 Z M19.0322581,10.9677419 L17.2580645,10.9677419 C16.7096774,10.9677419 16.2903226,10.5483871 16.2903226,10 C16.2903226,9.4516129 16.7096774,9.03225806 17.2580645,9.03225806 L19.0322581,9.03225806 C19.5806452,9.03225806 20,9.4516129 20,10 C20,10.5483871 19.5806452,10.9677419 19.0322581,10.9677419 Z M2.16129032,15.483871 C1.83870968,15.483871 1.51612903,15.3225806 1.32258065,15 C1.06451613,14.5483871 1.22580645,13.9354839 1.67741935,13.6774194 L3.19354839,12.8064516 C3.64516129,12.5483871 4.25806452,12.7096774 4.51612903,13.1612903 C4.77419355,13.6129032 4.61290323,14.2258065 4.16129032,14.483871 L2.64516129,15.3548387 C2.51612903,15.4516129 2.35483871,15.483871 2.16129032,15.483871 Z M16.2903226,7.32258065 C15.9677419,7.32258065 15.6451613,7.16129032 15.4516129,6.83870968 C15.1935484,6.38709677 15.3548387,5.77419355 15.8064516,5.51612903 L17.3225806,4.64516129 C17.7741935,4.38709677 18.3870968,4.5483871 18.6451613,5 C18.9032258,5.4516129 18.7419355,6.06451613 18.2903226,6.32258065 L16.7741935,7.19354839 C16.6129032,7.29032258 16.4516129,7.32258065 16.2903226,7.32258065 Z M5.48387097,18.7741935 C5.32258065,18.7741935 5.16129032,18.7419355 5,18.6451613 C4.5483871,18.3870968 4.38709677,17.7741935 4.64516129,17.3225806 L5.51612903,15.8064516 C5.77419355,15.3548387 6.38709677,15.1935484 6.83870968,15.4516129 C7.29032258,15.7096774 7.4516129,16.3225806 7.19354839,16.7741935 L6.32258065,18.2903226 C6.12903226,18.6129032 5.80645161,18.7741935 5.48387097,18.7741935 Z M13.6451613,4.67741935 C13.483871,4.67741935 13.3225806,4.64516129 13.1612903,4.5483871 C12.7096774,4.29032258 12.5483871,3.67741935 12.8064516,3.22580645 L13.6774194,1.70967742 C13.9354839,1.25806452 14.5483871,1.09677419 15,1.35483871 C15.4516129,1.61290323 15.6129032,2.22580645 15.3548387,2.67741935 L14.483871,4.19354839 C14.2903226,4.48387097 13.9677419,4.67741935 13.6451613,4.67741935 Z" id="Combined-Shape" fill="#FFFFFF" fill-rule="nonzero" mask="url(#mask-2)" transform="translate(10.000000, 10.000000) rotate(40.000000) translate(-10.000000, -10.000000) "></path>
            </g>
        </g>
    </g>
</svg>