<?xml version="1.0" encoding="UTF-8"?>
<svg width="18px" height="18px" viewBox="0 0 18 18" version="1.1" xmlns="http://www.w3.org/2000/svg" xmlns:xlink="http://www.w3.org/1999/xlink">
    <!-- Generator: Sketch 47.1 (45422) - http://www.bohemiancoding.com/sketch -->
    <title>rotate_iconSVG/</title>
    <desc>Created with Sketch.</desc>
    <defs>
        <path d="M12.482496,4.78813685 L18,10.2881341 L12.4739794,15.7796612 L6.94796709,10.2881341 L12.482496,4.78813685 Z M15.5903534,10.2881341 L12.4739794,7.18644157 L9.36613029,10.2881341 L12.482496,13.3898307 L15.5903534,10.2881341 Z M2.24787127,4.98304715 C3.73793719,3.49152933 5.70482743,2.74576233 7.66319451,2.74576233 L7.66319451,0 L11.2734144,3.59321674 L7.66319451,7.18644157 L7.66319451,4.44067924 C6.13907383,4.44067924 4.61494821,5.01694565 3.44843877,6.17796726 C1.12393563,8.49152168 1.12393563,12.254239 3.44843877,14.5677967 C4.61494821,15.7288134 6.13907383,16.3050847 7.66319451,16.3050847 C8.48912091,16.3050847 9.31503909,16.1271188 10.0813659,15.7881354 L11.3500471,17.0508477 C10.200565,17.6779667 8.93188389,18 7.66319451,18 C5.70482743,18 3.73793719,17.2542379 2.24787127,15.7627119 C-0.749290423,12.7881343 -0.749290423,7.95762638 2.24787127,4.98304715 Z" id="path-1"></path>
    </defs>
    <g id="Icons" stroke="none" stroke-width="1" fill="none" fill-rule="evenodd">
        <g id="rotate_icon">
            <g>
                <mask id="mask-2" fill="white">
                    <use xlink:href="#path-1"></use>
                </mask>
                <use id="Clip-2" fill="#FFFFFF" xlink:href="#path-1"></use>
            </g>
        </g>
    </g>
</svg>