<?xml version="1.0" encoding="UTF-8"?>
<svg width="26px" height="26px" viewBox="0 0 26 26" version="1.1" xmlns="http://www.w3.org/2000/svg" xmlns:xlink="http://www.w3.org/1999/xlink">
    <!-- Generator: Sketch 47.1 (45422) - http://www.bohemiancoding.com/sketch -->
    <title>snap_trigger_iconSVG/</title>
    <desc>Created with Sketch.</desc>
    <defs>
        <path d="M11.5142857,8.66666667 L14.4857143,8.66666667 L15.392,9.6296304 L16.9619048,9.6296304 C17.5066667,9.6296304 17.952381,10.0629637 17.952381,10.5925941 L17.952381,16.3703703 C17.952381,16.9 17.5066667,17.3333333 16.9619048,17.3333333 L9.03809524,17.3333333 C8.49333333,17.3333333 8.04761905,16.9 8.04761905,16.3703703 L8.04761905,10.5925941 C8.04761905,10.0629637 8.49333333,9.6296304 9.03809524,9.6296304 L10.608,9.6296304 L11.5142857,8.66666667 Z M13,15.9466667 C14.3668571,15.9466667 15.4761905,14.85952 15.4761905,13.52 C15.4761905,12.18048 14.3668571,11.0933333 13,11.0933333 C11.6331429,11.0933333 10.5238095,12.18048 10.5238095,13.52 C10.5238095,14.85952 11.6331429,15.9466667 13,15.9466667 Z M13,15.08 C12.1208533,15.08 11.4081633,14.3815641 11.4081633,13.52 C11.4081633,12.6584363 12.1208533,11.96 13,11.96 C13.8791467,11.96 14.5918367,12.6584363 14.5918367,13.52 C14.5918367,14.3815641 13.8791467,15.08 13,15.08 Z" id="path-1"></path>
    </defs>
    <g id="Icons" stroke="none" stroke-width="1" fill="none" fill-rule="evenodd">
        <g id="snap_trigger_icon">
            <g>
                <circle id="Oval" stroke="#FFFFFF" stroke-width="0.630000026" cx="13" cy="13" r="12.685"></circle>
                <mask id="mask-2" fill="white">
                    <use xlink:href="#path-1"></use>
                </mask>
                <use id="Clip-2" fill="#FFFFFF" xlink:href="#path-1"></use>
            </g>
        </g>
    </g>
</svg>