<?xml version="1.0" encoding="UTF-8"?>
<svg width="14px" height="17px" viewBox="0 0 14 17" version="1.1" xmlns="http://www.w3.org/2000/svg" xmlns:xlink="http://www.w3.org/1999/xlink">
    <!-- Generator: Sketch 47.1 (45422) - http://www.bohemiancoding.com/sketch -->
    <title>upload_iconSVG/</title>
    <desc>Created with Sketch.</desc>
    <defs></defs>
    <g id="Icons" stroke="none" stroke-width="1" fill="none" fill-rule="evenodd">
        <g id="upload_icon" fill-rule="nonzero" fill="#FFFFFF">
            <g id="Combined-Shape">
                <path d="M10.9523585,3.88028455 C11.1834906,4.12560976 11.1834906,4.5195122 10.9523585,4.76138211 C10.8367925,4.88231707 10.6849057,4.9445122 10.5330189,4.9445122 C10.3811321,4.9445122 10.2292453,4.88231707 10.1136792,4.76138211 L7.59433962,2.125 L7.59433962,11.0356852 C7.59433962,11.3777584 7.32688679,11.6576365 7,11.6576365 C6.67311321,11.6576365 6.40566038,11.3777584 6.40566038,11.0356852 L6.40566038,2.125 L3.88962264,4.76138211 C3.65518868,5.00325203 3.27877358,5.00325203 3.04764151,4.76138211 C2.81650943,4.51605691 2.81650943,4.12215447 3.04764151,3.88028455 L6.58066038,0.183130081 C6.68962264,0.0656504065 6.84150943,0 7,0 C7.15518868,0 7.30707547,0.0656504065 7.41933962,0.183130081 L10.9523585,3.88028455 Z M13.4056604,11.6235772 C13.7325472,11.6235772 14,11.9034553 14,12.2455285 L14,16.3780488 C14,16.720122 13.7358491,17 13.4056604,17 L0.594339623,17 C0.26745283,17 8.8817842e-16,16.720122 8.8817842e-16,16.3780488 L8.8817842e-16,12.2455285 C8.8817842e-16,11.9034553 0.26745283,11.6235772 0.594339623,11.6235772 C0.921226415,11.6235772 1.18867925,11.9034553 1.18867925,12.2455285 L1.18867925,15.7560976 L12.8113208,15.7560976 L12.8113208,12.2455285 C12.8113208,11.9034553 13.0787736,11.6235772 13.4056604,11.6235772 Z"></path>
            </g>
        </g>
    </g>
</svg>