<?xml version="1.0" encoding="UTF-8"?>
<svg width="127px" height="208px" viewBox="0 0 127 208" version="1.1" xmlns="http://www.w3.org/2000/svg" xmlns:xlink="http://www.w3.org/1999/xlink">
    <!-- Generator: Sketch 47.1 (45422) - http://www.bohemiancoding.com/sketch -->
    <title>ipad_onboarding_screen_1_illustration</title>
    <desc>Created with Sketch.</desc>
    <defs></defs>
    <g id="Illustrations" stroke="none" stroke-width="1" fill="none" fill-rule="evenodd">
        <g id="ipad_onboarding_screen_1_illustration">
            <g id="ipad_illustration">
                <rect id="Rectangle-2" stroke="#FFFFFF" stroke-width="2" x="1" y="1" width="125" height="206" rx="12"></rect>
                <rect id="Rectangle-3" fill="#FFFFFF" x="60" y="8" width="7" height="2" rx="1"></rect>
                <g id="screen" transform="translate(8.000000, 16.000000)">
                    <path d="M0.879999995,0.879999995 L0.879999995,167.12 L111.12,167.12 L111.12,0.879999995 L0.879999995,0.879999995 Z" id="Rectangle-2-Copy" stroke="#FFFFFF" stroke-width="1.75999999"></path>
                    <g id="Group-2" transform="translate(16.000000, 24.000000)">
                        <path d="M76.619726,115.988274 L76.619726,116 L78.9397089,116 L78.9397089,115.988274 L79.0452405,115.988274 L79.0452405,113.668291 L78.9397089,113.668291 L78.9397089,94.9090909 L76.619726,94.9090909 L76.619726,113.668291 L57.9543314,113.668291 L57.9543314,115.988274 L76.619726,115.988274 Z M0.0602911265,115.988274 L0.0602911265,116 L2.380274,116 L2.380274,115.988274 L21.0456686,115.988274 L21.0456686,113.668291 L2.380274,113.668291 L2.380274,94.9090909 L0.0602911265,94.9090909 L0.0602911265,113.668291 L-0.0452404819,113.668291 L-0.0452404819,115.988274 L0.0602911265,115.988274 Z M78.9397089,0.0117257343 L78.9397089,-5.55111512e-17 L76.619726,-5.55111512e-17 L76.619726,0.0117257343 L57.9543314,0.0117257343 L57.9543314,2.33170861 L76.619726,2.33170861 L76.619726,21.0909091 L78.9397089,21.0909091 L78.9397089,2.33170861 L79.0452405,2.33170861 L79.0452405,0.0117257343 L78.9397089,0.0117257343 Z M2.380274,0.0117257343 L2.380274,-5.55111512e-17 L0.0602911265,-5.55111512e-17 L0.0602911265,0.0117257343 L-0.0452404819,0.0117257343 L-0.0452404819,2.33170861 L0.0602911265,2.33170861 L0.0602911265,21.0909091 L2.380274,21.0909091 L2.380274,2.33170861 L21.0456686,2.33170861 L21.0456686,0.0117257343 L2.380274,0.0117257343 Z" id="Combined-Shape" fill="#009EDC"></path>
                        <g id="Group" transform="translate(9.988764, 10.000000)">
                            <rect id="Rectangle-5" stroke="#FFFFFF" stroke-width="2" x="1.01123596" y="1" width="59" height="95"></rect>
                            <path d="M42.8445693,9 L51.011236,9 L51.011236,14.877193 L42.8445693,14.877193 L42.8445693,9 Z M9.01123596,21.9298246 L26.511236,21.9298246 L26.511236,23.1052632 L9.01123596,23.1052632 L9.01123596,21.9298246 Z M9.01123596,26.6315789 L20.6779026,26.6315789 L20.6779026,27.8070175 L9.01123596,27.8070175 L9.01123596,26.6315789 Z M9.01123596,39.5614035 L51.011236,39.5614035 L51.011236,40.7368421 L9.01123596,40.7368421 L9.01123596,39.5614035 Z M9.01123596,44.2631579 L51.011236,44.2631579 L51.011236,45.4385965 L9.01123596,45.4385965 L9.01123596,44.2631579 Z M9.01123596,48.9649123 L39.3445693,48.9649123 L39.3445693,50.1403509 L9.01123596,50.1403509 L9.01123596,48.9649123 Z M9.01123596,74.8245614 L39.3445693,74.8245614 L39.3445693,76 L9.01123596,76 L9.01123596,74.8245614 Z" id="Combined-Shape" fill="#FFFFFF"></path>
                        </g>
                    </g>
                </g>
                <rect id="Rectangle-7" stroke="#FFFFFF" stroke-width="2" x="59" y="191" width="9" height="9" rx="4.5"></rect>
            </g>
        </g>
    </g>
</svg>