<?xml version="1.0" encoding="UTF-8"?>
<svg width="200px" height="144px" viewBox="0 0 200 144" version="1.1" xmlns="http://www.w3.org/2000/svg" xmlns:xlink="http://www.w3.org/1999/xlink">
    <!-- Generator: Sketch 47.1 (45422) - http://www.bohemiancoding.com/sketch -->
    <title>ipad_onboarding_screen_4_illustration</title>
    <desc>Created with Sketch.</desc>
    <defs></defs>
    <g id="Illustrations" stroke="none" stroke-width="1" fill="none" fill-rule="evenodd">
        <g id="ipad_onboarding_screen_4_illustration">
            <g id="illustration">
                <g id="lamp" transform="translate(34.000000, 0.000000)">
                    <g id="Group-4" transform="translate(6.018634, 62.213592)" stroke-width="2" stroke="#FFFFFF">
                        <circle id="Oval-3" cx="13.4813665" cy="13.2864078" r="11.5"></circle>
                        <circle id="Oval-3-Copy" cx="13.4813665" cy="13.2864078" r="4.5"></circle>
                    </g>
                    <g id="Group-3" transform="translate(80.401520, 33.108681) rotate(-51.000000) translate(-80.401520, -33.108681) translate(56.401520, 11.608681)" stroke="#FFFFFF" stroke-width="2">
                        <path d="M11.7969404,27.0433176 L37.8714745,27.0433176 L37.8714745,14.0627351 C37.8714745,6.89258465 32.0626343,1.08215258 24.8958945,1.08215258 L24.7725204,1.08215258 C17.6118235,1.08215258 11.7969404,6.89668881 11.7969404,14.0627351 L11.7969404,27.0433176 Z" id="Rectangle-8"></path>
                        <path d="M1.00522478,41.8248877 L46.0300695,41.8248877 L46.0300695,34.4365382 C46.0300695,30.36184 42.7222878,27.0481887 38.6500785,27.0481887 L8.38521579,27.0481887 C4.307761,27.0481887 1.00522478,30.3547994 1.00522478,34.4365382 L1.00522478,41.8248877 Z" id="Rectangle-9"></path>
                    </g>
                    <g id="rays" transform="translate(112.500000, 58.500000) rotate(-51.000000) translate(-112.500000, -58.500000) translate(94.000000, 49.000000)" fill="#FFFFFF">
                        <path d="M18.464183,18.5808464 C18.0453551,18.5808464 17.7059863,18.236221 17.7059863,17.8109058 L17.7059863,3.43857826 C17.7059863,3.01326306 18.0453551,2.66863764 18.464183,2.66863764 C18.8830109,2.66863764 19.2223797,3.01326306 19.2223797,3.43857826 L19.2223797,17.8109058 C19.2223797,18.236221 18.8830109,18.5808464 18.464183,18.5808464 Z M36.1711092,12.4213215 C35.9548715,12.4213215 35.7401502,12.3276967 35.5900273,12.1462987 L26.5929617,1.26457393 C26.3236502,0.938735056 26.3655027,0.45336449 26.6863715,0.179881582 C27.0075437,-0.0926773974 27.4852076,-0.051100604 27.7545191,0.274738266 L36.7515846,11.156463 C37.0208961,11.4823019 36.9790437,11.9676725 36.6581748,12.2411554 C36.5162404,12.36219 36.3433715,12.4213215 36.1711092,12.4213215 Z M0.757863333,12.4213215 C0.585904317,12.4213215 0.412732185,12.36219 0.270797759,12.2411554 C-0.0500710932,11.9673645 -0.0916202736,11.4819939 0.177387923,11.156463 L9.1744535,0.274738266 C9.44437153,-0.051100604 9.92233874,-0.0923694212 10.242601,0.179881582 C10.5634699,0.453672466 10.6050191,0.939043033 10.3360109,1.26457393 L1.3389453,12.1462987 C1.18882235,12.3276967 0.974101038,12.4213215 0.757863333,12.4213215 Z" id="Combined-Shape"></path>
                    </g>
                    <path d="M41.3112893,72.244472 L46.2475194,69.4614348 L44.5124511,0.935864004 L42.5932184,0.935864004 C41.0413364,0.935864004 39.8049793,2.24718358 39.8403946,3.89291084 L41.3112893,72.244472 Z" id="Rectangle-10" stroke="#FFFFFF" stroke-width="2" transform="translate(43.051035, 36.935864) rotate(40.000000) translate(-43.051035, -36.935864) "></path>
                    <polyline id="Rectangle-10-Copy" stroke="#FFFFFF" stroke-width="2" transform="translate(19.000000, 112.500000) scale(-1, 1) translate(-19.000000, -112.500000) " points="21 87 21 138 17 138 17 87.9935691 17 87"></polyline>
                    <g id="base" transform="translate(0.000000, 133.000000)">
                        <path d="M7,10 L45,10 L45,7.5 C45,6.1215105 43.8802554,5 42.5027983,5 L9.49720168,5 C8.11961641,5 7,6.12000418 7,7.5 L7,10 Z" id="Rectangle-8" stroke="#FFFFFF" stroke-width="2"></path>
                        <rect id="Rectangle-8-Copy" fill="#FFFFFF" x="0" y="9" width="53" height="2"></rect>
                        <path d="M36,2 C36,0.8954305 36.8877296,-2.77555756e-17 38,-2.77555756e-17 L38,-2.77555756e-17 C39.1045695,-2.77555756e-17 40,0.887729645 40,2 L40,4 L36,4 L36,2 Z" id="Rectangle-11" fill="#FFFFFF"></path>
                    </g>
                </g>
                <rect id="Rectangle-2" fill="#FFFFFF" x="0" y="142" width="200" height="2"></rect>
            </g>
        </g>
    </g>
</svg>