<?xml version="1.0" encoding="UTF-8"?>
<svg width="150px" height="141px" viewBox="0 0 150 141" version="1.1" xmlns="http://www.w3.org/2000/svg" xmlns:xlink="http://www.w3.org/1999/xlink">
    <!-- Generator: Sketch 47.1 (45422) - http://www.bohemiancoding.com/sketch -->
    <title>mobile_onboarding_screen_3_illustration</title>
    <desc>Created with Sketch.</desc>
    <defs>
        <polygon id="path-1" points="0 0 80 0 150 40 70 40"></polygon>
        <mask id="mask-2" maskContentUnits="userSpaceOnUse" maskUnits="objectBoundingBox" x="0" y="0" width="150" height="40" fill="white">
            <use xlink:href="#path-1"></use>
        </mask>
        <circle id="path-3" cx="31" cy="31" r="31"></circle>
        <mask id="mask-4" maskContentUnits="userSpaceOnUse" maskUnits="objectBoundingBox" x="0" y="0" width="62" height="62" fill="white">
            <use xlink:href="#path-3"></use>
        </mask>
    </defs>
    <g id="Illustrations" stroke="none" stroke-width="1" fill="none" fill-rule="evenodd">
        <g id="mobile_onboarding_screen_3_illustration">
            <g id="phone_iso_illustration">
                <g id="document_iso" transform="translate(0.000000, 101.000000)">
                    <use id="Rectangle-5" stroke="#FFFFFF" mask="url(#mask-2)" stroke-width="4" stroke-dasharray="221,30" transform="translate(75.000000, 20.000000) scale(-1, -1) translate(-75.000000, -20.000000) " xlink:href="#path-1"></use>
                    <path d="M20,6 L50.1261261,6 L52.9009009,7.4 L22.7747748,7.4 L20,6 Z M25.5495495,8.8 L45.6336336,8.8 L48.4084084,10.2 L28.3243243,10.2 L25.5495495,8.8 Z M39.4234234,15.8 L99.6756757,15.8 L102.45045,17.2 L42.1981982,17.2 L39.4234234,15.8 Z M44.972973,18.6 L105.225225,18.6 L108,20 L47.7477477,20 L44.972973,18.6 Z M50.5225225,21.4 L84.6654655,21.4 L87.4402402,22.8 L53.2972973,22.8 L50.5225225,21.4 Z M72.7207207,32.6 L99.8342342,32.6 L102.609009,34 L75.4954955,34 L72.7207207,32.6 Z" id="Combined-Shape-Copy" fill="#FFFFFF"></path>
                </g>
                <g id="arrow_blue" transform="translate(75.500000, 72.000000) rotate(90.000000) translate(-75.500000, -72.000000) translate(41.000000, 60.000000)">
                    <g transform="translate(34.500000, 12.000000) scale(-1, 1) translate(-34.500000, -12.000000) ">
                        <polygon id="Path-3" fill="#009EDC" fill-rule="nonzero" points="14.6883117 1.44348185 13.3310316 0 0 12 13.3310316 24 14.6883117 22.5565182 2.96087197 12"></polygon>
                        <path d="M2.53246753,12 L68.0076369,12" id="Line" stroke="#009EDC" stroke-width="2" stroke-linecap="square"></path>
                    </g>
                </g>
                <g id="dial" transform="translate(51.000000, 9.000000)">
                    <use id="Oval-2" stroke="#009EDC" mask="url(#mask-4)" stroke-width="4" stroke-dasharray="51,340" xlink:href="#path-3"></use>
                    <path d="M35.0244141,44.2167969 C34.2197225,44.2167969 33.5322294,44.0000022 32.9619141,43.5664062 C32.3915987,43.1328103 32.0478521,42.5664097 31.9306641,41.8671875 L33.6826172,41.8671875 C33.7646488,42.1523452 33.9277332,42.379882 34.171875,42.5498047 C34.4160168,42.7197274 34.7040999,42.8046875 35.0361328,42.8046875 C35.6142607,42.8046875 36.0673812,42.5419948 36.3955078,42.0166016 C36.7236345,41.4912083 36.8798829,40.7793014 36.8642578,39.8808594 L36.7587891,39.8808594 C36.5634756,40.2792989 36.2783222,40.5878895 35.9033203,40.8066406 C35.5283184,41.0253917 35.0927759,41.1347656 34.5966797,41.1347656 C33.7958944,41.1347656 33.1318386,40.8691433 32.6044922,40.3378906 C32.0771458,39.806638 31.8134766,39.1367228 31.8134766,38.328125 C31.8134766,37.4492144 32.1171845,36.729495 32.7246094,36.1689453 C33.3320343,35.6083956 34.1083937,35.328125 35.0537109,35.328125 C36.3076235,35.328125 37.2373017,35.8476511 37.8427734,36.8867188 C38.3154321,37.6132849 38.5517578,38.5507755 38.5517578,39.6992188 C38.5517578,41.1093821 38.2392609,42.2148397 37.6142578,43.015625 C36.9892547,43.8164103 36.1259821,44.2167969 35.0244141,44.2167969 Z M35.0654297,39.8046875 C35.5068381,39.8046875 35.8730454,39.6611342 36.1640625,39.3740234 C36.4550796,39.0869126 36.6005859,38.7265647 36.6005859,38.2929688 C36.6005859,37.8515603 36.454103,37.4814468 36.1611328,37.1826172 C35.8681626,36.8837876 35.504885,36.734375 35.0712891,36.734375 C34.6376931,36.734375 34.273439,36.8818345 33.9785156,37.1767578 C33.6835923,37.4716812 33.5361328,37.8378884 33.5361328,38.2753906 C33.5361328,38.7167991 33.6806626,39.0820298 33.9697266,39.3710938 C34.2587905,39.6601577 34.6240212,39.8046875 35.0654297,39.8046875 Z M43.3916016,44.2167969 C42.3447213,44.2167969 41.5224639,43.8242227 40.9248047,43.0390625 C40.3271454,42.2539023 40.0283203,41.1601633 40.0283203,39.7578125 C40.0283203,38.359368 40.3290986,37.2714883 40.9306641,36.4941406 C41.5322296,35.716793 42.3525339,35.328125 43.3916016,35.328125 C44.4306693,35.328125 45.249997,35.716793 45.8496094,36.4941406 C46.4492217,37.2714883 46.7490234,38.3613211 46.7490234,39.7636719 C46.7490234,41.1621164 46.4511749,42.2539023 45.8554688,43.0390625 C45.2597626,43.8242227 44.4384818,44.2167969 43.3916016,44.2167969 Z M43.3916016,42.8164062 C43.8798853,42.8164062 44.2617174,42.5566432 44.5371094,42.0371094 C44.8125014,41.5175755 44.9501953,40.7578175 44.9501953,39.7578125 C44.9501953,38.7617138 44.8115248,38.0078151 44.5341797,37.4960938 C44.2568346,36.9843724 43.875979,36.7285156 43.3916016,36.7285156 C42.9111304,36.7285156 42.5302748,36.985349 42.2490234,37.4990234 C41.967772,38.0126979 41.8271484,38.76562 41.8271484,39.7578125 C41.8271484,40.7578175 41.9667955,41.5175755 42.2460938,42.0371094 C42.525392,42.5566432 42.9072241,42.8164062 43.3916016,42.8164062 Z M50.2060547,39.6171875 C49.6005829,39.6171875 49.0966817,39.4150411 48.6943359,39.0107422 C48.2919902,38.6064433 48.0908203,38.1113311 48.0908203,37.5253906 C48.0908203,36.9394502 48.2919902,36.444338 48.6943359,36.0400391 C49.0966817,35.6357402 49.6005829,35.4335938 50.2060547,35.4335938 C50.8076202,35.4335938 51.3095683,35.6357402 51.7119141,36.0400391 C52.1142598,36.444338 52.3154297,36.9394502 52.3154297,37.5253906 C52.3154297,38.1113311 52.1142598,38.6064433 51.7119141,39.0107422 C51.3095683,39.4150411 50.8076202,39.6171875 50.2060547,39.6171875 Z M50.2060547,38.609375 C50.5263688,38.609375 50.7841787,38.5048839 50.9794922,38.2958984 C51.1748057,38.086913 51.2724609,37.8300796 51.2724609,37.5253906 C51.2724609,37.2167953 51.1748057,36.959962 50.9794922,36.7548828 C50.7841787,36.5498037 50.5263688,36.4472656 50.2060547,36.4472656 C49.8857406,36.4472656 49.6279307,36.5498037 49.4326172,36.7548828 C49.2373037,36.959962 49.1396484,37.2167953 49.1396484,37.5253906 C49.1396484,37.8300796 49.2373037,38.086913 49.4326172,38.2958984 C49.6279307,38.5048839 49.8857406,38.609375 50.2060547,38.609375 Z" id="90°" fill="#009EDC"></path>
                </g>
                <g id="phone" transform="translate(33.000000, 0.000000)" stroke="#FFFFFF" stroke-width="2">
                    <path d="M0,2 L0,7.02557648 C0,8.12587016 0.802207879,9.4260406 1.78934878,9.92835057 L37.4796571,28.0894839 C38.4678871,28.592348 40.1619947,29 41.2634151,29 L83.0055907,29 C84.1070725,29 85,28.1134452 85,26.9940809 L85,22 L41.2634151,22 C40.1619333,22 38.466798,21.5914295 37.4796571,21.0886712 L0,2 Z" id="Path-5"></path>
                    <path d="M0,0.5 L40.5071406,0.5 C41.6077664,0.5 43.3110437,0.891209304 44.2990262,1.36776558 L85,21" id="Path-4" stroke-linecap="round"></path>
                </g>
            </g>
        </g>
    </g>
</svg>