<?xml version="1.0" encoding="UTF-8"?>
<svg width="154px" height="145px" viewBox="0 0 154 145" version="1.1" xmlns="http://www.w3.org/2000/svg" xmlns:xlink="http://www.w3.org/1999/xlink">
    <!-- Generator: Sketch 50.2 (55047) - http://www.bohemiancoding.com/sketch -->
    <title>mobile_onboarding_screen_6_illustration</title>
    <desc>Created with Sketch.</desc>
    <defs></defs>
    <g id="mobile_onboarding_screen_6_illustration" stroke="none" stroke-width="1" fill="none" fill-rule="evenodd">
        <g id="multipage-icon/black" transform="translate(17.000000, 16.000000)" fill="#FFFFFF">
            <g id="gv_photo_tip_multipage">
                <path d="M1.73583302,11.8991643 L1.73583302,103.348538 L13.1168066,103.348538 L13.1168066,105.045273 L0.396894947,105.045273 L0.396894947,103.348538 L0.396894947,11.8991643 L0.396894947,10.2024291 L13.1168066,10.2024291 L13.1168066,11.8991643 L1.73583302,11.8991643 Z M7.87346715,34.7328998 L13.1168066,34.7328998 L13.1168066,36.429635 L7.87346715,36.429635 L7.87346715,34.7328998 Z M7.87346715,40.3937751 L13.1168066,40.3937751 L13.1168066,42.0905102 L7.87346715,42.0905102 L7.87346715,40.3937751 Z M7.87346715,54.5459717 L13.1168066,54.5459717 L13.1168066,56.2427068 L7.87346715,56.2427068 L7.87346715,54.5459717 Z M7.87346715,60.2068469 L13.1168066,60.2068469 L13.1168066,61.903582 L7.87346715,61.903582 L7.87346715,60.2068469 Z M7.87346715,65.8677221 L13.1168066,65.8677221 L13.1168066,67.5644573 L7.87346715,67.5644573 L7.87346715,65.8677221 Z M7.87346715,88.5112316 L13.1168066,88.5112316 L13.1168066,90.2079667 L7.87346715,90.2079667 L7.87346715,88.5112316 Z" id="Page-3"></path>
                <path d="M14.2887355,6.62495399 L14.2887355,107.49487 L28.5986361,107.49487 L28.5986361,109.084859 L12.6987465,109.084859 L12.6987465,107.49487 L12.6987465,6.62495399 L12.6987465,5.03496503 L28.5986361,5.03496503 L28.5986361,6.62495399 L14.2887355,6.62495399 Z M23.1347952,32.0549991 L28.6997566,32.0549991 L28.6997566,34.4399825 L23.1347952,34.4399825 L23.1347952,32.0549991 Z M23.1347952,38.2903886 L28.6997566,38.2903886 L28.6997566,40.6753721 L23.1347952,40.6753721 L23.1347952,38.2903886 Z M23.1347952,53.878872 L28.6997566,53.878872 L28.6997566,56.2638554 L23.1347952,56.2638554 L23.1347952,53.878872 Z M23.1347952,60.1142616 L28.6997566,60.1142616 L28.6997566,62.499245 L23.1347952,62.499245 L23.1347952,60.1142616 Z M23.1347952,66.3496511 L28.6997566,66.3496511 L28.6997566,68.7346346 L23.1347952,68.7346346 L23.1347952,66.3496511 Z M23.1347952,91.2912189 L28.6997566,91.2912189 L28.6997566,93.6762023 L23.1347952,93.6762023 L23.1347952,91.2912189 Z" id="Page-2"></path>
                <path d="M117.526684,1.58998896 L29.4147957,1.58998896 L29.4147957,111.564225 L117.526684,111.564225 L117.526684,1.58998896 Z M118.454177,0 L119.116673,0 L119.116673,113.286713 L117.526684,113.286713 L117.526684,113.154214 L29.4147957,113.154214 L29.4147957,113.286713 L27.8248068,113.286713 L27.8248068,1.58998896 L27.8248068,0 L118.454177,0 Z M98.0733813,11.3229779 L106.076139,11.3229779 L106.076139,17.3251864 L98.0733813,17.3251864 L98.0733813,11.3229779 Z M39.195427,29.4397386 L73.1634512,29.4397386 L73.1634512,31.824722 L39.195427,31.824722 L39.195427,29.4397386 Z M39.195427,36.2335212 L61.8407799,36.2335212 L61.8407799,38.6185047 L39.195427,38.6185047 L39.195427,36.2335212 Z M39.195427,53.2179882 L107.131547,53.2179882 L107.131547,55.6029716 L39.195427,55.6029716 L39.195427,53.2179882 Z M39.195427,60.0117708 L107.131547,60.0117708 L107.131547,62.3967543 L39.195427,62.3967543 L39.195427,60.0117708 Z M39.195427,66.8055535 L77.6924829,66.8055535 L77.6924829,69.190537 L39.195427,69.190537 L39.195427,66.8055535 Z M39.195427,93.9806945 L69.7666519,93.9806945 L69.7666519,96.3656779 L39.195427,96.3656779 L39.195427,93.9806945 Z" id="Page-1"></path>
            </g>
        </g>
    </g>
</svg>