<?xml version="1.0" encoding="UTF-8"?>
<svg width="264px" height="99px" viewBox="0 0 264 99" version="1.1" xmlns="http://www.w3.org/2000/svg" xmlns:xlink="http://www.w3.org/1999/xlink">
    <!-- Generator: Sketch 47.1 (45422) - http://www.bohemiancoding.com/sketch -->
    <title>mobile_onboarding_screen_2_illustration</title>
    <desc>Created with Sketch.</desc>
    <defs></defs>
    <g id="Illustrations" stroke="none" stroke-width="1" fill="none" fill-rule="evenodd">
        <g id="mobile_onboarding_screen_2_illustration">
            <g id="adjust_illustration">
                <g id="document_right" transform="translate(184.000000, 0.000000)">
                    <rect id="Rectangle-5" stroke="#FFFFFF" stroke-width="2" x="1" y="1" width="78" height="97"></rect>
                    <path d="M62,10 L70,10 L70,16 L62,16 L62,10 Z M10,26 L40,26 L40,29 L10,29 L10,26 Z M10,32 L30,32 L30,35 L10,35 L10,32 Z M10,47 L70,47 L70,50 L10,50 L10,47 Z M10,53 L70,53 L70,56 L10,56 L10,53 Z M10,59 L44,59 L44,62 L10,62 L10,59 Z M10,83 L37,83 L37,86 L10,86 L10,83 Z" id="Combined-Shape" fill="#FFFFFF"></path>
                </g>
                <g id="document_left">
                    <path d="M15.2998832,1 L1.14602642,31.8075078 L21.4855827,61.3335594 L4.23446262,98 L87.8643402,98 L103.879001,61.4938361 L86.5423453,31.9890258 L99.0362597,1 L15.2998832,1 Z" id="Path-2" stroke="#FFFFFF" stroke-width="2"></path>
                    <polygon id="Rectangle-6" fill="#FFFFFF" points="82.7142857 7 89 7 87.5714286 10 81 10"></polygon>
                    <path d="M17.1885246,11 L47.704918,11 L46.2090164,14.6 L15.3934426,14.6 L17.1885246,11 Z M14.795082,16.4 L35.1393443,16.4 L33.6434426,20 L13,20 L14.795082,16.4 Z M18.3852459,88.4 L50.6967213,88.4 L49.2008197,92 L16.5901639,92 L18.3852459,88.4 Z M14.795082,36.8 L80.0163934,36.8 L83.0081967,40.4 L17.7868852,40.4 L14.795082,36.8 Z M17.7868852,42.8 L83.0081967,42.8 L86,46.4 L20.7786885,46.4 L17.7868852,42.8 Z M20.7786885,48.8 L69.2459016,48.8 L72.2377049,52.4 L23.7704918,52.4 L20.7786885,48.8 Z" id="Combined-Shape" fill="#FFFFFF"></path>
                </g>
                <g id="arrow_blue" transform="translate(125.000000, 38.000000)">
                    <g transform="translate(19.500000, 12.000000) scale(-1, 1) translate(-19.500000, -12.000000) ">
                        <polygon id="Path-3" fill="#009EDC" fill-rule="nonzero" points="14.6883117 1.44348185 13.3310316 0 0 12 13.3310316 24 14.6883117 22.5565182 2.96087197 12"></polygon>
                        <path d="M2.53246753,12 L39,12" id="Line" stroke="#009EDC" stroke-width="2" stroke-linecap="square"></path>
                    </g>
                </g>
            </g>
        </g>
    </g>
</svg>