<?xml version="1.0" encoding="UTF-8"?>
<svg width="154px" height="145px" viewBox="0 0 154 145" version="1.1" xmlns="http://www.w3.org/2000/svg" xmlns:xlink="http://www.w3.org/1999/xlink">
    <!-- Generator: Sketch 50.2 (55047) - http://www.bohemiancoding.com/sketch -->
    <title>mobile_onboarding_screen_6_illustration_black</title>
    <desc>Created with Sketch.</desc>
    <defs></defs>
    <g id="mobile_onboarding_screen_6_illustration_black" stroke="none" stroke-width="1" fill="none" fill-rule="evenodd">
        <g id="multipage-icon/black" transform="translate(17.000000, 16.000000)" fill="#000000">
            <g id="gv_photo_tip_multipage">
                <path d="M1.73583302,11.9322175 L1.73583302,103.635617 L13.1168066,103.635617 L13.1168066,105.337065 L0.396894947,105.337065 L0.396894947,103.635617 L0.396894947,11.9322175 L0.396894947,10.2307692 L13.1168066,10.2307692 L13.1168066,11.9322175 L1.73583302,11.9322175 Z M7.87346715,34.8293801 L13.1168066,34.8293801 L13.1168066,36.5308284 L7.87346715,36.5308284 L7.87346715,34.8293801 Z M7.87346715,40.50598 L13.1168066,40.50598 L13.1168066,42.2074283 L7.87346715,42.2074283 L7.87346715,40.50598 Z M7.87346715,54.6974883 L13.1168066,54.6974883 L13.1168066,56.3989365 L7.87346715,56.3989365 L7.87346715,54.6974883 Z M7.87346715,60.3740882 L13.1168066,60.3740882 L13.1168066,62.0755364 L7.87346715,62.0755364 L7.87346715,60.3740882 Z M7.87346715,66.050688 L13.1168066,66.050688 L13.1168066,67.7521363 L7.87346715,67.7521363 L7.87346715,66.050688 Z M7.87346715,88.7570961 L13.1168066,88.7570961 L13.1168066,90.4585444 L7.87346715,90.4585444 L7.87346715,88.7570961 Z" id="Page-3"></path>
                <path d="M14.2887355,6.64335664 L14.2887355,107.793467 L28.5986361,107.793467 L28.5986361,109.387872 L12.6987465,109.387872 L12.6987465,107.793467 L12.6987465,6.64335664 L12.6987465,5.04895105 L28.5986361,5.04895105 L28.5986361,6.64335664 L14.2887355,6.64335664 Z M23.1347952,32.1440407 L28.6997566,32.1440407 L28.6997566,34.5356491 L23.1347952,34.5356491 L23.1347952,32.1440407 Z M23.1347952,38.3967508 L28.6997566,38.3967508 L28.6997566,40.7883592 L23.1347952,40.7883592 L23.1347952,38.3967508 Z M23.1347952,54.0285355 L28.6997566,54.0285355 L28.6997566,56.4201439 L23.1347952,56.4201439 L23.1347952,54.0285355 Z M23.1347952,60.2812456 L28.6997566,60.2812456 L28.6997566,62.672854 L23.1347952,62.672854 L23.1347952,60.2812456 Z M23.1347952,66.5339557 L28.6997566,66.5339557 L28.6997566,68.9255641 L23.1347952,68.9255641 L23.1347952,66.5339557 Z M23.1347952,91.5448056 L28.6997566,91.5448056 L28.6997566,93.936414 L23.1347952,93.936414 L23.1347952,91.5448056 Z" id="Page-2"></path>
                <path d="M117.526684,1.59440559 L29.4147957,1.59440559 L29.4147957,111.874126 L117.526684,111.874126 L117.526684,1.59440559 Z M118.454177,0 L119.116673,0 L119.116673,113.601399 L117.526684,113.601399 L117.526684,113.468531 L29.4147957,113.468531 L29.4147957,113.601399 L27.8248068,113.601399 L27.8248068,1.59440559 L27.8248068,0 L118.454177,0 Z M98.0733813,11.3544307 L106.076139,11.3544307 L106.076139,17.3733119 L98.0733813,17.3733119 L98.0733813,11.3544307 Z M39.195427,29.5215156 L73.1634512,29.5215156 L73.1634512,31.913124 L39.195427,31.913124 L39.195427,29.5215156 Z M39.195427,36.3341699 L61.8407799,36.3341699 L61.8407799,38.7257783 L39.195427,38.7257783 L39.195427,36.3341699 Z M39.195427,53.3658159 L107.131547,53.3658159 L107.131547,55.7574243 L39.195427,55.7574243 L39.195427,53.3658159 Z M39.195427,60.1784702 L107.131547,60.1784702 L107.131547,62.5700786 L39.195427,62.5700786 L39.195427,60.1784702 Z M39.195427,66.9911245 L77.6924829,66.9911245 L77.6924829,69.3827329 L39.195427,69.3827329 L39.195427,66.9911245 Z M39.195427,94.2417519 L69.7666519,94.2417519 L69.7666519,96.6333603 L39.195427,96.6333603 L39.195427,94.2417519 Z" id="Page-1"></path>
            </g>
        </g>
    </g>
</svg>